<svg class="icon" style="height:16px; width: 16px; fill: currentColor" xmlns="http://www.w3.org/2000/svg" viewBox="0 0 20 20"><path d="M17.1 1.25H2.92c-.91 0-1.65.74-1.65 1.65v11.45c0 .91.74 1.65 1.65 1.65h6.46v1.5H2.89c-.14 0-.26.12-.26.26v.73c0 .14.12.26.26.26h14.22c.14 0 .26-.12.26-.26v-.73c0-.14-.12-.26-.26-.26h-6.48V16h6.48c.91 0 1.65-.74 1.65-1.65V2.9c0-.91-.74-1.65-1.65-1.65zm.4 13.1c0 .22-.18.4-.4.4H2.92c-.22 0-.4-.18-.4-.4V2.9c0-.22.18-.4.4-.4H17.1c.22 0 .4.18.4.4v11.45z"></path><path d="M6.55 10.88c.09.09.24.09.33 0l.44-.44L8.66 9.1l1.44 1.44c.12.12.28.18.44.18s.32-.07.44-.18l3.15-3.15v.75c0 .13.1.23.23.23h.78c.13 0 .23-.1.23-.23V5.36c0-.13-.1-.23-.23-.23h-2.78c-.13 0-.23.1-.23.23v.78c0 .13.1.23.23.23h1.01l-2.84 2.84-1.44-1.44a.628.628 0 00-.88 0L6.43 9.55l-.44.44c-.09.09-.09.24 0 .33l.55.55z"></path><path d="M15.75 12.25H5.25V4.23c0-.13-.1-.23-.23-.23h-.78c-.13 0-.23.1-.23.23v9.03c0 .13.1.23.23.23h11.52c.13 0 .23-.1.23-.23v-.78c0-.13-.1-.23-.23-.23z"></path></svg>