<svg class="icon" style="height:16px; width: 16px; fill: currentColor" xmlns="http://www.w3.org/2000/svg" viewBox="0 0 20 20"><path d="M5.48 11.01l-.67 2.34a1.479 1.479 0 001.83 1.83l2.34-.67c.24-.07.46-.2.64-.38l8.34-8.34c.58-.58.86-1.39.76-2.21-.1-.82-.57-1.54-1.29-1.97-.4-.24-.85-.36-1.32-.36-.72 0-1.43.3-1.95.82l-8.31 8.3c-.18.18-.31.4-.38.64zm.53 2.68l.67-2.34s.03-.07.06-.1l8.3-8.3c.29-.29.68-.45 1.07-.45.23 0 .47.06.68.19.83.5.92 1.59.29 2.22l-8.34 8.34s-.06.05-.1.06l-2.34.67h-.06c-.15 0-.26-.14-.22-.29z"></path><path d="M18.49 7.98h-.73c-.14 0-.26.12-.26.26v8.85c0 .22-.18.4-.4.4H2.9c-.22 0-.4-.18-.4-.4V2.89c0-.22.18-.4.4-.4h8.85c.14 0 .26-.12.26-.26V1.5c0-.14-.12-.26-.26-.26H2.9c-.91 0-1.65.74-1.65 1.65V17.1c0 .91.74 1.65 1.65 1.65h14.21c.91 0 1.65-.74 1.65-1.65V8.25c0-.14-.12-.26-.26-.26z"></path></svg>